<svg width="20" height="20" viewBox="0 0 20 20" fill="none" xmlns="http://www.w3.org/2000/svg">
<path d="M9.99996 16.6667C11.7681 16.6667 13.4638 15.9644 14.714 14.7141C15.9642 13.4639 16.6666 11.7682 16.6666 10.0001C16.6666 8.23197 15.9642 6.53628 14.714 5.28604C13.4638 4.03579 11.7681 3.33341 9.99996 3.33341C8.23185 3.33341 6.53616 4.03579 5.28591 5.28604C4.03567 6.53628 3.33329 8.23197 3.33329 10.0001C3.33329 11.7682 4.03567 13.4639 5.28591 14.7141C6.53616 15.9644 8.23185 16.6667 9.99996 16.6667ZM9.99996 18.3334C5.39746 18.3334 1.66663 14.6026 1.66663 10.0001C1.66663 5.39758 5.39746 1.66675 9.99996 1.66675C14.6025 1.66675 18.3333 5.39758 18.3333 10.0001C18.3333 14.6026 14.6025 18.3334 9.99996 18.3334ZM7.40829 10.9751L5.32663 10.3259C4.87663 10.1884 4.87413 9.87841 5.42746 9.65591L13.5383 6.52258C14.0091 6.33091 14.2758 6.57341 14.1233 7.18091L12.7425 13.6976C12.6458 14.1617 12.3666 14.2726 11.9791 14.0584L9.85329 12.4851L8.86246 13.4417C8.76079 13.5401 8.67829 13.6242 8.52163 13.6451C8.36579 13.6667 8.23746 13.6201 8.14329 13.3617L7.41829 10.9692L7.40829 10.9759V10.9751Z" fill="black"/>
</svg>
