<svg xmlns="http://www.w3.org/2000/svg" version="1.1" xmlns:xlink="http://www.w3.org/1999/xlink" xmlns:svgjs="http://svgjs.dev/svgjs" width="850.39" height="850.39"><svg xmlns="http://www.w3.org/2000/svg" viewBox="0 0 850.39 850.39"><defs><style>.cls-1{fill:#173494;}.cls-2{fill:#c6c6c6;}</style></defs><g id="SvgjsG1015"><g id="SvgjsG1014"><circle class="cls-1" cx="537.94" cy="398.48" r="7.58" transform="translate(-56.88 91.31) rotate(-9.22)"></circle><circle class="cls-1" cx="559.99" cy="398.48" r="7.58" transform="translate(-56.6 94.84) rotate(-9.22)"></circle><circle class="cls-1" cx="582.03" cy="398.48" r="7.58" transform="translate(-56.31 98.38) rotate(-9.22)"></circle><g id="SvgjsG1013"><path class="cls-1" d="M250.16,545.08h56.56v50.37a4.52,4.52,0,0,0,4.5,4.51H531.85a4.52,4.52,0,0,0,4.51-4.51V545.08h56.56a22,22,0,0,0,22-22V388.05a22,22,0,0,0-22-21.95H570.27v-60a4.52,4.52,0,0,0-4.51-4.5h-29.4v-7.15a8.88,8.88,0,0,0-2.82-6.49l-8.76-8.19-19-17.78-9.93-9.29a8.43,8.43,0,0,0-5.77-2.28H311.22a4.51,4.51,0,0,0-4.5,4.5v46.68H277.88a4.51,4.51,0,0,0-4.5,4.5v60H250.16a22,22,0,0,0-21.95,21.95V523.13A22,22,0,0,0,250.16,545.08ZM524.78,475V588.38H318.29V465.69H524.78Zm7.07-20.86H311.22a4.52,4.52,0,0,0-4.5,4.5V475h-6.58V446.62H541.81V475h-5.45V458.61A4.52,4.52,0,0,0,531.85,454.11Zm4.51-140.92h22.33V366.1H536.36ZM497.41,273l13.95,13.06H497.41ZM318.29,313.19V262H483.65V293a6.87,6.87,0,0,0,6.86,6.87h34.27V366.1H318.29Zm-33.34,0h21.77V366.1H285Zm-45.17,74.86a10.4,10.4,0,0,1,10.38-10.38H592.92a10.39,10.39,0,0,1,10.38,10.38V523.13a10.39,10.39,0,0,1-10.38,10.38H536.36v-47h12.52a4.52,4.52,0,0,0,4.5-4.51V439.55a4.51,4.51,0,0,0-4.5-4.5H293.07a4.51,4.51,0,0,0-4.5,4.5V482a4.52,4.52,0,0,0,4.5,4.51h13.65v47H250.16a10.4,10.4,0,0,1-10.38-10.38Z"></path><path d="M634.08,115.19H209a97.47,97.47,0,0,0-97.47,97.47v37.78h11.58V212.66A86,86,0,0,1,209,126.76H634.08a86,86,0,0,1,85.9,85.9V637.74a86,86,0,0,1-85.9,85.89H209a86,86,0,0,1-85.89-85.89V600H111.53v37.78A97.47,97.47,0,0,0,209,735.21H634.08a97.47,97.47,0,0,0,97.47-97.47V212.66A97.47,97.47,0,0,0,634.08,115.19Z"></path><rect x="111.53" y="342.46" width="11.57" height="36.72"></rect><rect x="111.53" y="471.21" width="11.57" height="36.72"></rect><path d="M147.58,342.46a15.2,15.2,0,0,0,15.2-15.2V265.63a15.2,15.2,0,0,0-15.2-15.19H86a15.19,15.19,0,0,0-15.19,15.19v61.63A15.19,15.19,0,0,0,86,342.46h61.63Z"></path><path class="cls-1" d="M147.58,471.21a15.21,15.21,0,0,0,15.2-15.2V394.38a15.2,15.2,0,0,0-15.2-15.19H86a15.19,15.19,0,0,0-15.19,15.19V456A15.2,15.2,0,0,0,86,471.21h61.63Z"></path><path class="cls-2" d="M147.58,600a15.21,15.21,0,0,0,15.2-15.2V523.13a15.21,15.21,0,0,0-15.2-15.2H86a15.2,15.2,0,0,0-15.19,15.2v61.63A15.2,15.2,0,0,0,86,600h61.63Z"></path></g></g></g></svg><style>@media (prefers-color-scheme: light) { :root { filter: none; } }
@media (prefers-color-scheme: dark) { :root { filter: contrast(0.3846153846153846) brightness(4.5); } }
</style></svg>