<svg width="20" height="20" viewBox="0 0 24 24" fill="none" xmlns="http://www.w3.org/2000/svg">
<path d="M5.28125 10.4938C7.08125 14.0312 9.975 16.925 13.5188 18.725L16.2687 15.9688C16.6125 15.625 17.1063 15.525 17.5375 15.6625C18.9375 16.125 20.4437 16.375 22 16.375C22.6938 16.375 23.25 16.9312 23.25 17.625V22C23.25 22.6938 22.6938 23.25 22 23.25C10.2625 23.25 0.75 13.7375 0.75 2C0.75 1.30625 1.3125 0.75 2 0.75H6.375C7.06875 0.75 7.625 1.30625 7.625 2C7.625 3.55625 7.875 5.0625 8.3375 6.4625C8.475 6.89375 8.375 7.3875 8.03125 7.73125L5.28125 10.4938V10.4938Z" fill="white"/>
</svg>
