<svg width="140" height="140" viewBox="0 0 140 140" fill="none" xmlns="http://www.w3.org/2000/svg">
<path d="M70 41.3253C79.2771 41.3253 80.5422 41.3253 84.3374 41.3253C87.7108 41.3253 89.3976 42.1687 90.6627 42.5904C92.3494 43.4337 93.6145 43.8554 94.8795 45.1205C96.1446 46.3855 96.988 47.6506 97.4096 49.3374C97.8313 50.6024 98.253 52.2892 98.6747 55.6627C98.6747 59.4578 98.6747 60.3012 98.6747 70C98.6747 79.6988 98.6747 80.5422 98.6747 84.3374C98.6747 87.7108 97.8313 89.3976 97.4096 90.6627C96.5663 92.3494 96.1446 93.6145 94.8795 94.8795C93.6145 96.1446 92.3494 96.988 90.6627 97.4096C89.3976 97.8313 87.7108 98.253 84.3374 98.6747C80.5422 98.6747 79.6988 98.6747 70 98.6747C60.3012 98.6747 59.4578 98.6747 55.6627 98.6747C52.2892 98.6747 50.6024 97.8313 49.3374 97.4096C47.6506 96.5663 46.3855 96.1446 45.1205 94.8795C43.8554 93.6145 43.012 92.3494 42.5904 90.6627C42.1687 89.3976 41.747 87.7108 41.3253 84.3374C41.3253 80.5422 41.3253 79.6988 41.3253 70C41.3253 60.3012 41.3253 59.4578 41.3253 55.6627C41.3253 52.2892 42.1687 50.6024 42.5904 49.3374C43.4337 47.6506 43.8554 46.3855 45.1205 45.1205C46.3855 43.8554 47.6506 43.012 49.3374 42.5904C50.6024 42.1687 52.2892 41.747 55.6627 41.3253C59.4578 41.3253 60.7229 41.3253 70 41.3253ZM70 35C60.3012 35 59.4578 35 55.6627 35C51.8675 35 49.3374 35.8434 47.2289 36.6867C45.1205 37.5301 43.0121 38.7952 40.9036 40.9036C38.7952 43.0121 37.9518 44.6988 36.6867 47.2289C35.8434 49.3374 35.4217 51.8675 35 55.6627C35 59.4578 35 60.7229 35 70C35 79.6988 35 80.5422 35 84.3374C35 88.1325 35.8434 90.6627 36.6867 92.7711C37.5301 94.8795 38.7952 96.988 40.9036 99.0964C43.0121 101.205 44.6988 102.048 47.2289 103.313C49.3374 104.157 51.8675 104.578 55.6627 105C59.4578 105 60.7229 105 70 105C79.2771 105 80.5422 105 84.3374 105C88.1325 105 90.6627 104.157 92.7711 103.313C94.8795 102.47 96.988 101.205 99.0964 99.0964C101.205 96.988 102.048 95.3012 103.313 92.7711C104.157 90.6627 104.578 88.1325 105 84.3374C105 80.5422 105 79.2771 105 70C105 60.7229 105 59.4578 105 55.6627C105 51.8675 104.157 49.3374 103.313 47.2289C102.47 45.1205 101.205 43.0121 99.0964 40.9036C96.988 38.7952 95.3012 37.9518 92.7711 36.6867C90.6627 35.8434 88.1325 35.4217 84.3374 35C80.5422 35 79.6988 35 70 35Z" fill="black"/>
<path d="M70 51.8675C59.8795 51.8675 51.8675 59.8795 51.8675 70C51.8675 80.1205 59.8795 88.1325 70 88.1325C80.1205 88.1325 88.1325 80.1205 88.1325 70C88.1325 59.8795 80.1205 51.8675 70 51.8675ZM70 81.8072C63.6747 81.8072 58.1928 76.747 58.1928 70C58.1928 63.6747 63.253 58.1928 70 58.1928C76.3253 58.1928 81.8072 63.253 81.8072 70C81.8072 76.3253 76.3253 81.8072 70 81.8072Z" fill="black"/>
<path d="M88.5542 55.6627C90.8831 55.6627 92.7711 53.7747 92.7711 51.4458C92.7711 49.1169 90.8831 47.2289 88.5542 47.2289C86.2253 47.2289 84.3374 49.1169 84.3374 51.4458C84.3374 53.7747 86.2253 55.6627 88.5542 55.6627Z" fill="black"/>
</svg>
