<svg width="140" height="140" viewBox="0 0 140 140" fill="none" xmlns="http://www.w3.org/2000/svg">
<rect width="140" height="140" fill="#0077FF"/>
<path d="M73.4388 94.5C47.1309 94.5 32.1252 76.1066 31.5 45.5H44.678C45.1109 67.9645 54.826 77.48 62.5212 79.4419V45.5H74.9297V64.8744C82.5287 64.0405 90.5125 55.2117 93.2058 45.5H105.614C104.599 50.5368 102.576 55.3058 99.6716 59.5088C96.7669 63.7117 93.0431 67.2582 88.733 69.9264C93.544 72.3644 97.7934 75.8152 101.201 80.0511C104.608 84.287 107.096 89.2116 108.5 94.5H94.841C93.5806 89.9066 91.0189 85.7948 87.4769 82.6799C83.9349 79.565 79.5701 77.5855 74.9297 76.9895V94.5H73.4388Z" fill="white"/>
</svg>
