<svg width="140" height="140" viewBox="0 0 140 140" fill="none" xmlns="http://www.w3.org/2000/svg">
<path d="M97.7439 42.2187C90.8293 35.3281 81.6097 31.5 71.878 31.5C51.6463 31.5 35.2561 47.8333 35.2561 67.9948C35.2561 74.375 37.0488 80.7552 40.122 86.1146L35 105L54.4634 99.8958C59.8415 102.703 65.7317 104.234 71.878 104.234C92.1097 104.234 108.5 87.901 108.5 67.7396C108.244 58.2969 104.659 49.1094 97.7439 42.2187ZM89.5488 81.0104C88.7805 83.0521 85.1951 85.0937 83.4024 85.349C81.8658 85.6042 79.8171 85.6042 77.7683 85.0938C76.4878 84.5833 74.6951 84.0729 72.6463 83.0521C63.4268 79.224 57.5366 70.0365 57.0244 69.2708C56.5122 68.7604 53.1829 64.4219 53.1829 59.8281C53.1829 55.2344 55.4878 53.1927 56.2561 52.1719C57.0244 51.151 58.0488 51.151 58.8171 51.151C59.3293 51.151 60.0976 51.151 60.6097 51.151C61.1219 51.151 61.8902 50.8958 62.6585 52.6823C63.4268 54.4687 65.2195 59.0625 65.4756 59.3177C65.7317 59.8281 65.7317 60.3385 65.4756 60.849C65.2195 61.3594 64.9634 61.8698 64.4512 62.3802C63.939 62.8906 63.4268 63.6562 63.1707 63.9115C62.6585 64.4219 62.1463 64.9323 62.6585 65.6979C63.1707 66.7187 64.9634 69.526 67.7805 72.0781C71.3659 75.1406 74.1829 76.1615 75.2073 76.6719C76.2317 77.1823 76.7439 76.9271 77.2561 76.4167C77.7683 75.9062 79.561 73.8646 80.0732 72.8438C80.5854 71.8229 81.3537 72.0781 82.1219 72.3333C82.8902 72.5885 87.5 74.8854 88.2683 75.3958C89.2927 75.9063 89.8049 76.1615 90.061 76.4167C90.3171 77.1823 90.3171 78.9687 89.5488 81.0104Z" fill="black"/>
</svg>
