<svg xmlns="http://www.w3.org/2000/svg" viewBox="0 0 4424.17 850.39"><defs><style>.cls-1{fill:#173494;}.cls-2{fill:#c6c6c6;}</style></defs><g id="Лого_в_2_строки_" data-name="Лого (в 2 строки)"><g id="Ориг-3" data-name="Ориг"><g id="Принтер"><path class="cls-1" d="M354.31,564.63h56.56V615a4.52,4.52,0,0,0,4.51,4.5H636a4.51,4.51,0,0,0,4.5-4.5V564.63h56.57a22,22,0,0,0,21.94-22V407.6a22,22,0,0,0-21.94-22H674.42v-60a4.51,4.51,0,0,0-4.5-4.5H640.51V314a8.88,8.88,0,0,0-2.82-6.49l-8.76-8.2-19-17.77L600,272.27a8.43,8.43,0,0,0-5.77-2.28H415.38a4.52,4.52,0,0,0-4.51,4.5v46.68H382a4.51,4.51,0,0,0-4.5,4.5v60H354.31a22,22,0,0,0-21.95,22V542.68A22,22,0,0,0,354.31,564.63Zm274.62-70.11V607.93H422.45V485.23H628.93ZM636,473.66H415.38a4.52,4.52,0,0,0-4.51,4.5v16.36h-6.58V466.17H646v28.35h-5.45V478.16A4.52,4.52,0,0,0,636,473.66Zm4.5-140.92h22.33v52.91H640.51Zm-39-40.18,14,13.06h-14ZM422.45,332.74V281.56H587.8v30.95a6.86,6.86,0,0,0,6.87,6.86h34.26v66.28H422.45Zm-33.35,0h21.77v52.91H389.1ZM343.93,407.6a10.4,10.4,0,0,1,10.38-10.38H697.08a10.39,10.39,0,0,1,10.37,10.38V542.68a10.38,10.38,0,0,1-10.37,10.37H640.51v-47H653a4.51,4.51,0,0,0,4.5-4.5V459.1a4.52,4.52,0,0,0-4.5-4.51H397.22a4.52,4.52,0,0,0-4.5,4.51v42.49a4.51,4.51,0,0,0,4.5,4.5h13.65v47H354.31a10.39,10.39,0,0,1-10.38-10.37Z"/><path d="M738.23,134.74H313.15a97.47,97.47,0,0,0-97.47,97.47V270h11.58V232.21a86,86,0,0,1,85.89-85.9H738.23a86,86,0,0,1,85.9,85.9V657.28a86,86,0,0,1-85.9,85.9H313.15a86,86,0,0,1-85.89-85.9V619.5H215.68v37.78a97.47,97.47,0,0,0,97.47,97.47H738.23a97.47,97.47,0,0,0,97.47-97.47V232.21A97.47,97.47,0,0,0,738.23,134.74Z"/><rect x="215.68" y="362.01" width="11.57" height="36.72"/><rect x="215.68" y="490.76" width="11.57" height="36.72"/><path d="M251.73,362a15.19,15.19,0,0,0,15.2-15.2V285.18A15.19,15.19,0,0,0,251.73,270H190.1a15.19,15.19,0,0,0-15.19,15.19v61.63A15.19,15.19,0,0,0,190.1,362h61.63Z"/><path class="cls-1" d="M251.73,490.76a15.2,15.2,0,0,0,15.2-15.2V413.93a15.2,15.2,0,0,0-15.2-15.2H190.1a15.2,15.2,0,0,0-15.19,15.2v61.63a15.2,15.2,0,0,0,15.19,15.2h61.63Z"/><path class="cls-2" d="M251.73,619.5a15.19,15.19,0,0,0,15.2-15.19V542.68a15.19,15.19,0,0,0-15.2-15.2H190.1a15.19,15.19,0,0,0-15.19,15.2v61.63A15.19,15.19,0,0,0,190.1,619.5h61.63Z"/><circle class="cls-1" cx="642.09" cy="418.03" r="7.58" transform="translate(-58.67 108.25) rotate(-9.22)"/><circle class="cls-1" cx="664.14" cy="418.03" r="7.58" transform="translate(-58.38 111.78) rotate(-9.22)"/><circle class="cls-1" cx="686.18" cy="418.03" r="7.58" transform="translate(-58.1 115.31) rotate(-9.22)"/></g><g id="СТУДИЯ_ПЕЧАТИ" data-name="СТУДИЯ ПЕЧАТИ"><path d="M2842.44,314.89h205.17V578.41h-56.85V368h-91.1V578.41h-57.22Z"/><path d="M3165.06,525.33h105v53.08H3107.84V314.89H3266v52.7H3165.06v52h91.1v51.58h-91.1Z"/><path d="M3448.53,314.89h56.85V578.41h-56.85V484.68q-24.84,9-48.18,9a101.28,101.28,0,0,1-37.84-7A92.07,92.07,0,0,1,3332,467.17q-13-12.62-20.33-32t-7.34-43.1V314.89h57.22v76.8q0,24.84,11.48,37.65T3406,442.13q18.45,0,42.54-9.78Z"/><path d="M3740.67,578.41l-18.45-50.07h-105l-18.07,50.07h-60.24L3642,314.89h53.84L3802.4,578.41Zm-71.16-193.87-34.25,94.11h68.89Z"/><path d="M3992.52,314.89V368h-73.41V578.41h-57.23V368h-73V314.89Z"/><path d="M4207.85,314.89h41.41V578.41H4192V419.93l-122,158.48h-39.53V314.89h57.22V471.5Z"/><path d="M1279.15,584.06q-38,0-69.27-17.88a128.27,128.27,0,0,1-48.94-49.32q-17.7-31.42-17.7-69.83,0-58.72,39-98.26t96.94-39.53q48.18,0,83.2,29t44.42,76h-57.22a78.37,78.37,0,0,0-15.44-26.92,69.41,69.41,0,0,0-24.28-17.69,75.35,75.35,0,0,0-30.68-6.22q-33.51,0-55.91,23.91t-22.39,59.48q0,35.58,22.39,59.29t55.91,23.72q26,0,44.8-14.68t26-39.9h57.6q-9,48.93-44.23,78.86T1279.15,584.06Z"/><path d="M1625.87,314.89V368h-73.41V578.41h-57.22V368h-73V314.89Z"/><path d="M1827,314.89h59.48L1812,492.58q-19.95,48.95-44.6,67.76t-67.58,18.82h-10.54V526.09h16.56q17.7,0,27.11-5.27t17.32-20l-97.88-186h64l62.5,120.47Z"/><path d="M2094.94,525.33h25.61v99.76h-52.71V578.41H1912v46.68h-52.71V525.33h21.08a54,54,0,0,0,9.6-9.79q4-5.25,7.53-16.74a204.89,204.89,0,0,0,5.84-23.72q2.25-12.24,5.08-37.84t5.08-51q2.25-25.41,6-71.34h175.43ZM1968.83,368q-4.51,73-10.92,107.11t-18.82,50.25h99V368Z"/><path d="M2344.16,314.89h41.41V578.41h-57.22V419.93l-122,158.48h-39.53V314.89h57.22V471.5Z"/><path d="M2527.12,314.89h108.42V578.41h-57.22V486.93H2541.8l-50.07,91.48h-64L2485,478.27a91,91,0,0,1-21.65-13.17,78.44,78.44,0,0,1-26-38.78,81.84,81.84,0,0,1-3.57-24.09q0-37.28,26.73-62.31T2527.12,314.89Zm3.39,122h47.81V368h-47.81q-17,0-27.48,9.41t-10.54,24.85a33.66,33.66,0,0,0,4.89,18.07,32.78,32.78,0,0,0,13.55,12.23A43.13,43.13,0,0,0,2530.51,436.86Z"/></g><rect id="Разделитель" class="cls-1" x="977" y="158.86" width="12.26" height="571.78" rx="6.13"/></g></g></svg>