<svg width="20" height="20" viewBox="0 0 20 20" fill="none" xmlns="http://www.w3.org/2000/svg">
<g clip-path="url(#clip0_32_65)">
<path d="M6.04417 15.4117L6.6475 15.7642C7.66495 16.3576 8.82216 16.6692 10 16.6667C11.3185 16.6667 12.6075 16.2758 13.7038 15.5432C14.8001 14.8107 15.6546 13.7695 16.1592 12.5513C16.6638 11.3331 16.7958 9.99269 16.5386 8.69948C16.2813 7.40627 15.6464 6.21839 14.714 5.28604C13.7817 4.35369 12.5938 3.71875 11.3006 3.46151C10.0074 3.20428 8.66695 3.3363 7.44878 3.84088C6.2306 4.34547 5.18941 5.19995 4.45687 6.29628C3.72433 7.39261 3.33333 8.68154 3.33333 10.0001C3.33333 11.1967 3.6475 12.3442 4.23667 13.3534L4.58833 13.9567L4.04417 15.9576L6.04417 15.4117ZM1.67 18.3334L2.79667 14.1934C2.05428 12.9208 1.66425 11.4734 1.66667 10.0001C1.66667 5.39758 5.3975 1.66675 10 1.66675C14.6025 1.66675 18.3333 5.39758 18.3333 10.0001C18.3333 14.6026 14.6025 18.3334 10 18.3334C8.52732 18.3358 7.08055 17.9461 5.80833 17.2042L1.67 18.3334ZM6.9925 6.09008C7.10417 6.08175 7.21667 6.08175 7.32833 6.08675C7.37333 6.09008 7.41833 6.09508 7.46333 6.10008C7.59583 6.11508 7.74167 6.19591 7.79083 6.30758C8.03917 6.87091 8.28083 7.43841 8.51417 8.00758C8.56583 8.13425 8.535 8.29675 8.43667 8.45508C8.36904 8.56215 8.29588 8.66562 8.2175 8.76508C8.12333 8.88591 7.92083 9.10758 7.92083 9.10758C7.92083 9.10758 7.83833 9.20591 7.87 9.32841C7.88167 9.37508 7.92 9.44258 7.955 9.49925L8.00417 9.57841C8.2175 9.93425 8.50417 10.2951 8.85417 10.6351C8.95417 10.7317 9.05167 10.8309 9.15667 10.9234C9.54667 11.2676 9.98833 11.5484 10.465 11.7567L10.4692 11.7584C10.54 11.7892 10.5758 11.8059 10.6792 11.8501C10.7308 11.8717 10.7842 11.8909 10.8383 11.9051C10.8943 11.9193 10.9533 11.9167 11.0077 11.8974C11.0622 11.8781 11.1096 11.8431 11.1442 11.7967C11.7475 11.0659 11.8025 11.0184 11.8075 11.0184V11.0201C11.8494 10.981 11.8992 10.9513 11.9535 10.9331C12.0079 10.9148 12.0655 10.9084 12.1225 10.9142C12.1725 10.9176 12.2233 10.9267 12.27 10.9476C12.7125 11.1501 13.4367 11.4659 13.4367 11.4659L13.9217 11.6834C14.0033 11.7226 14.0775 11.8151 14.08 11.9042C14.0833 11.9601 14.0883 12.0501 14.0692 12.2151C14.0425 12.4309 13.9775 12.6901 13.9125 12.8259C13.868 12.9186 13.8089 13.0036 13.7375 13.0776C13.6534 13.1659 13.5614 13.2462 13.4625 13.3176C13.4283 13.3433 13.3936 13.3683 13.3583 13.3926C13.2547 13.4583 13.1482 13.5195 13.0392 13.5759C12.8246 13.6899 12.5876 13.7553 12.345 13.7676C12.1908 13.7759 12.0367 13.7876 11.8817 13.7792C11.875 13.7792 11.4083 13.7067 11.4083 13.7067C10.2235 13.3951 9.12783 12.8113 8.20833 12.0017C8.02 11.8359 7.84583 11.6576 7.6675 11.4801C6.92583 10.7426 6.36583 9.94675 6.02583 9.19508C5.85181 8.82616 5.75781 8.42458 5.75 8.01675C5.74657 7.51079 5.91196 7.01814 6.22 6.61675C6.28083 6.53841 6.33833 6.45675 6.4375 6.36258C6.54333 6.26258 6.61 6.20925 6.6825 6.17258C6.7789 6.12427 6.88405 6.09593 6.99167 6.08925L6.9925 6.09008Z" fill="black"/>
</g>
<defs>
<clipPath id="clip0_32_65">
<rect width="20" height="20" fill="white"/>
</clipPath>
</defs>
</svg>
